<svg width="624" height="298" viewBox="0 0 624 298" fill="none" xmlns="http://www.w3.org/2000/svg">
<path d="M234.152 80.288V115.36H186.536V260H142.76V115.36H95.144V80.288H234.152ZM365.434 80.288V115.36H292.218V153.248H347.002V187.296H292.218V260H248.442V80.288H365.434ZM489.562 167.84C499.973 170.059 508.335 175.264 514.65 183.456C520.965 191.477 524.122 200.693 524.122 211.104C524.122 226.123 518.831 238.069 508.25 246.944C497.839 255.648 483.247 260 464.474 260H380.762V80.288H461.658C479.919 80.288 494.17 84.4693 504.41 92.832C514.821 101.195 520.026 112.544 520.026 126.88C520.026 137.461 517.21 146.251 511.578 153.248C506.117 160.245 498.778 165.109 489.562 167.84ZM424.538 152.992H453.21C460.378 152.992 465.839 151.456 469.594 148.384C473.519 145.141 475.482 140.448 475.482 134.304C475.482 128.16 473.519 123.467 469.594 120.224C465.839 116.981 460.378 115.36 453.21 115.36H424.538V152.992ZM456.794 224.672C464.133 224.672 469.765 223.051 473.69 219.808C477.786 216.395 479.834 211.531 479.834 205.216C479.834 198.901 477.701 193.952 473.434 190.368C469.338 186.784 463.621 184.992 456.282 184.992H424.538V224.672H456.794Z" fill="black"/>
<rect width="44" height="260" fill="black"/>
<rect x="580" width="44" height="260" fill="black"/>
<rect x="44" y="44" width="44" height="536" transform="rotate(-90 44 44)" fill="black"/>
<circle cx="89" cy="238" r="22" fill="black"/>
</svg>
