<?xml version="1.0" encoding="UTF-8"?>
<svg xmlns="http://www.w3.org/2000/svg" xmlns:xlink="http://www.w3.org/1999/xlink" viewBox="0 0 250 250" width="250px" height="250px">
<g id="surface2598453">
<path style=" stroke:none;fill-rule:nonzero;fill:rgb(100%,100%,100%);fill-opacity:1;" d="M 125 60 C 92.539062 60 63.105469 66.796875 41.367188 78.144531 C 19.628906 89.492188 5 105.839844 5 125 C 5 144.160156 19.628906 160.507812 41.367188 171.855469 C 63.105469 183.203125 92.539062 190 125 190 C 157.460938 190 186.894531 183.203125 208.632812 171.855469 C 230.371094 160.507812 245 144.160156 245 125 C 245 105.839844 230.371094 89.492188 208.632812 78.144531 C 186.894531 66.796875 157.460938 60 125 60 Z M 125 70 C 156.054688 70 184.121094 76.621094 204.003906 87.011719 C 223.886719 97.382812 235 111.015625 235 125 C 235 138.984375 223.886719 152.617188 204.003906 162.988281 C 184.121094 173.378906 156.054688 180 125 180 C 93.945312 180 65.878906 173.378906 45.996094 162.988281 C 26.113281 152.617188 15 138.984375 15 125 C 15 111.015625 26.113281 97.382812 45.996094 87.011719 C 65.878906 76.621094 93.945312 70 125 70 Z M 112.539062 80 L 100 140 L 113.125 140 L 119.453125 110 L 129.941406 110 C 133.28125 110 135.507812 110.546875 136.542969 111.660156 C 137.558594 112.773438 137.773438 114.882812 137.1875 117.910156 L 132.402344 140 L 145.722656 140 L 150.917969 116.113281 C 152.03125 110.390625 151.191406 106.191406 148.417969 103.632812 C 145.585938 101.035156 140.605469 100 133.183594 100 L 121.484375 100 L 125.644531 80 Z M 55 100 L 44.863281 155 L 58.085938 155 L 60.722656 140 L 68.964844 140 C 86.191406 140 95.566406 136.015625 99.0625 121.230469 C 102.070312 108.515625 94.375 100 81.660156 100 Z M 160 100 L 149.863281 155 L 163.085938 155 L 165.722656 140 L 173.964844 140 C 191.191406 140 200.566406 136.015625 204.0625 121.230469 C 207.070312 108.515625 199.375 100 186.660156 100 Z M 66.367188 110 L 76.660156 110 C 85.214844 110 87.011719 113.847656 86.5625 118.125 C 85.410156 129.160156 78.535156 130 71.152344 130 L 62.578125 130 Z M 171.367188 110 L 181.660156 110 C 190.214844 110 192.011719 113.847656 191.5625 118.125 C 190.410156 129.160156 183.535156 130 176.152344 130 L 167.578125 130 Z M 171.367188 110 "/>
</g>
</svg>
