<?xml version="1.0" encoding="UTF-8"?>
<svg xmlns="http://www.w3.org/2000/svg" xmlns:xlink="http://www.w3.org/1999/xlink" viewBox="0 0 250 250" width="250px" height="250px">
<g id="surface2527528">
<path style=" stroke:none;fill-rule:nonzero;fill:rgb(100%,100%,100%);fill-opacity:1;" d="M 215.148438 139.011719 C 206.414062 139.054688 198.84375 141.15625 192.5 144.28125 C 190.179688 139.648438 187.828125 135.574219 187.433594 132.546875 C 186.976562 129.011719 186.441406 126.898438 186.996094 122.683594 C 187.550781 118.46875 189.988281 112.503906 189.949219 112.058594 C 189.914062 111.613281 189.40625 109.46875 184.363281 109.429688 C 179.324219 109.394531 175.015625 110.398438 174.503906 111.730469 C 173.996094 113.058594 173.023438 116.054688 172.425781 119.179688 C 171.539062 123.75 162.363281 140.050781 157.148438 148.574219 C 155.445312 145.246094 153.996094 142.316406 153.695312 139.996094 C 153.234375 136.460938 152.699219 134.351562 153.253906 130.136719 C 153.808594 125.921875 156.25 119.953125 156.210938 119.511719 C 156.175781 119.066406 155.664062 116.921875 150.625 116.878906 C 145.585938 116.84375 141.273438 117.851562 140.765625 119.179688 C 140.253906 120.511719 139.714844 123.621094 138.683594 126.628906 C 137.648438 129.640625 125.449219 156.824219 122.253906 163.871094 C 120.625 167.460938 119.210938 170.34375 118.210938 172.316406 C 118.203125 172.308594 118.203125 172.304688 118.203125 172.304688 C 118.203125 172.304688 118.144531 172.433594 118.035156 172.660156 C 117.179688 174.335938 116.671875 175.265625 116.671875 175.265625 C 116.671875 175.265625 116.675781 175.28125 116.683594 175.300781 C 116.003906 176.53125 115.28125 177.675781 114.921875 177.675781 C 114.671875 177.675781 114.164062 174.394531 115.03125 169.898438 C 116.84375 160.46875 121.203125 145.761719 121.164062 145.253906 C 121.144531 144.996094 121.976562 142.433594 118.316406 141.089844 C 114.761719 139.789062 113.488281 141.960938 113.164062 141.964844 C 112.851562 141.96875 112.613281 142.730469 112.613281 142.730469 C 112.613281 142.730469 116.578125 126.191406 105.054688 126.191406 C 97.855469 126.191406 87.875 134.070312 82.953125 141.210938 C 79.855469 142.898438 73.214844 146.523438 66.171875 150.394531 C 63.464844 151.878906 60.703125 153.398438 58.085938 154.84375 C 57.90625 154.648438 57.730469 154.449219 57.546875 154.253906 C 43.574219 139.351562 17.753906 128.808594 18.851562 108.773438 C 19.25 101.488281 21.78125 82.308594 68.46875 59.046875 C 106.714844 39.984375 137.335938 45.230469 142.625 56.855469 C 150.183594 73.460938 126.261719 104.324219 86.546875 108.773438 C 71.410156 110.46875 63.445312 104.605469 61.460938 102.421875 C 59.375 100.121094 59.066406 100.015625 58.285156 100.449219 C 57.015625 101.15625 57.820312 103.183594 58.285156 104.394531 C 59.46875 107.480469 64.335938 112.953125 72.636719 115.675781 C 79.933594 118.070312 97.699219 119.386719 119.191406 111.074219 C 143.253906 101.765625 162.046875 75.871094 156.53125 54.226562 C 150.914062 32.210938 114.414062 24.976562 79.871094 37.246094 C 59.308594 44.550781 37.054688 56.015625 21.050781 70.980469 C 2.019531 88.78125 -1.011719 104.269531 0.238281 110.738281 C 4.683594 133.738281 36.378906 148.714844 49.074219 159.816406 C 48.449219 160.160156 47.859375 160.484375 47.324219 160.78125 C 40.960938 163.929688 16.800781 176.574219 10.753906 189.933594 C 3.898438 205.089844 11.84375 215.964844 17.109375 217.429688 C 33.410156 221.964844 50.140625 213.804688 59.128906 200.394531 C 68.121094 186.988281 67.019531 169.535156 62.894531 161.566406 C 62.84375 161.464844 62.785156 161.371094 62.734375 161.269531 C 64.378906 160.296875 66.054688 159.308594 67.714844 158.335938 C 70.953125 156.433594 74.136719 154.660156 76.894531 153.15625 C 75.351562 157.386719 74.21875 162.453125 73.628906 169.78125 C 72.941406 178.386719 76.464844 189.503906 81.078125 193.878906 C 83.109375 195.804688 85.554688 195.851562 87.105469 195.851562 C 92.476562 195.851562 94.925781 191.386719 97.621094 186.101562 C 100.929688 179.621094 103.863281 172.078125 103.863281 172.078125 C 103.863281 172.078125 100.179688 192.453125 110.21875 192.453125 C 113.875 192.453125 117.554688 187.710938 119.195312 185.296875 C 119.199219 185.320312 119.199219 185.335938 119.199219 185.335938 C 119.199219 185.335938 119.296875 185.179688 119.480469 184.859375 C 119.859375 184.28125 120.074219 183.910156 120.074219 183.910156 C 120.074219 183.910156 120.085938 183.871094 120.09375 183.804688 C 121.566406 181.253906 124.824219 175.433594 129.714844 165.835938 C 136.03125 153.433594 142.089844 137.90625 142.089844 137.90625 C 142.089844 137.90625 142.65625 141.703125 144.5 147.980469 C 145.585938 151.675781 147.894531 155.761719 149.714844 159.675781 C 148.25 161.710938 147.351562 162.875 147.351562 162.875 C 147.351562 162.875 147.359375 162.894531 147.375 162.933594 C 146.203125 164.488281 144.890625 166.164062 143.515625 167.804688 C 138.53125 173.746094 132.589844 180.523438 131.796875 182.484375 C 130.859375 184.789062 131.078125 186.488281 132.890625 187.851562 C 134.210938 188.84375 136.566406 189 139.023438 188.835938 C 143.503906 188.535156 146.660156 187.421875 148.214844 186.746094 C 150.640625 185.890625 153.464844 184.539062 156.113281 182.589844 C 161.003906 178.996094 163.953125 173.851562 163.675781 167.035156 C 163.519531 163.28125 162.320312 159.558594 160.804688 156.046875 C 161.25 155.40625 161.695312 154.765625 162.140625 154.109375 C 169.851562 142.835938 175.828125 130.449219 175.828125 130.449219 C 175.828125 130.449219 176.394531 134.25 178.238281 140.523438 C 179.175781 143.703125 181.019531 147.171875 182.675781 150.570312 C 175.425781 156.460938 170.929688 163.304688 169.363281 167.796875 C 166.480469 176.101562 168.738281 179.863281 172.980469 180.71875 C 174.898438 181.109375 177.613281 180.230469 179.65625 179.363281 C 182.195312 178.523438 185.246094 177.121094 188.09375 175.023438 C 192.984375 171.429688 197.691406 166.394531 197.40625 159.578125 C 197.273438 156.480469 196.433594 153.398438 195.296875 150.441406 C 201.441406 147.878906 209.398438 146.453125 219.535156 147.640625 C 241.28125 150.179688 245.546875 163.753906 244.730469 169.433594 C 243.914062 175.121094 239.355469 178.238281 237.828125 179.183594 C 236.304688 180.128906 235.839844 180.453125 235.96875 181.15625 C 236.15625 182.175781 236.859375 182.136719 238.160156 181.914062 C 239.949219 181.613281 249.574219 177.296875 249.988281 166.804688 C 250.511719 153.515625 237.75 138.890625 215.148438 139.011719 Z M 47.558594 195.511719 C 40.359375 203.363281 30.296875 206.335938 25.980469 203.835938 C 21.320312 201.136719 23.164062 189.566406 32.003906 181.230469 C 37.390625 176.148438 44.34375 171.46875 48.960938 168.585938 C 50.011719 167.953125 51.550781 167.023438 53.425781 165.898438 C 53.734375 165.726562 53.910156 165.625 53.910156 165.625 L 53.90625 165.613281 C 54.265625 165.398438 54.640625 165.175781 55.019531 164.945312 C 58.234375 176.816406 55.121094 187.265625 47.558594 195.511719 Z M 100.023438 159.839844 C 97.515625 165.953125 92.265625 181.601562 89.070312 180.761719 C 86.324219 180.039062 84.65625 168.144531 88.519531 156.445312 C 90.464844 150.554688 94.621094 143.515625 97.066406 140.78125 C 100.996094 136.386719 105.324219 134.945312 106.375 136.730469 C 107.71875 139 101.601562 156.003906 100.023438 159.839844 Z M 143.375 180.523438 C 142.308594 181.078125 141.335938 181.429688 140.886719 181.160156 C 140.550781 180.960938 141.324219 180.230469 141.324219 180.230469 C 141.324219 180.230469 146.746094 174.394531 148.886719 171.738281 C 150.125 170.195312 151.570312 168.359375 153.136719 166.308594 C 153.148438 166.515625 153.15625 166.71875 153.15625 166.921875 C 153.136719 173.910156 146.386719 178.625 143.375 180.523438 Z M 176.769531 172.910156 C 175.976562 172.34375 176.109375 170.519531 178.714844 164.839844 C 179.738281 162.609375 182.074219 158.851562 186.140625 155.261719 C 186.609375 156.734375 186.898438 158.148438 186.890625 159.46875 C 186.835938 168.265625 180.558594 171.550781 176.769531 172.910156 Z M 176.769531 172.910156 "/>
</g>
</svg>
