<?xml version="1.0" encoding="UTF-8"?>
<svg xmlns="http://www.w3.org/2000/svg" xmlns:xlink="http://www.w3.org/1999/xlink" viewBox="0 0 256 256" width="256px" height="256px">
<g id="surface2608986">
<path style=" stroke:none;fill-rule:nonzero;fill:rgb(100%,100%,100%);fill-opacity:1;" d="M 177.234375 8 C 176.910156 8.011719 176.65625 8.105469 176.484375 8.265625 L 146.765625 43.5625 L 140.703125 64.40625 C 136.582031 64.269531 132.328125 64.21875 127.96875 64.21875 C 97.082031 64.21875 72 67.492188 72 71.546875 C 72 81.226562 183.921875 81.226562 183.921875 71.546875 C 183.921875 68.546875 170.523438 66.011719 151.203125 64.8125 L 156 47.65625 L 183.796875 14.21875 L 183.84375 14.171875 C 184.46875 13.523438 183.25 11.578125 181.265625 9.875 C 179.777344 8.589844 178.210938 7.960938 177.234375 8 Z M 138.421875 72.609375 L 138.3125 72.9375 C 138.265625 72.976562 138.265625 73.03125 138.265625 73.078125 C 138.265625 73.679688 140.6875 74.171875 143.640625 74.171875 C 146.59375 74.171875 149.03125 73.679688 149.03125 73.078125 L 149.125 72.703125 C 149.902344 72.984375 150.328125 73.304688 150.328125 73.671875 C 150.328125 74.640625 147.328125 75.429688 143.59375 75.390625 C 139.960938 75.390625 136.953125 74.65625 136.953125 73.6875 C 136.953125 73.273438 137.550781 72.890625 138.421875 72.609375 Z M 183.296875 75.359375 C 168.488281 83.253906 87.597656 83.308594 72.734375 75.46875 L 79.3125 133.328125 C 82.167969 124.105469 89.390625 111.652344 98.6875 107.875 C 101.734375 106.628906 104.832031 106.632812 107.734375 108.296875 C 110.253906 109.679688 112.386719 112.582031 112.625 113.734375 C 113.210938 116.734375 111.660156 117.921875 110.453125 117.921875 C 108.996094 117.921875 107.882812 115.808594 107.15625 114.5625 C 105.171875 111.195312 102.167969 111.050781 98.96875 113.265625 C 95.625 115.570312 92.71875 119.445312 90.6875 122.8125 C 88.214844 126.867188 86.132812 131.339844 84.875 135.8125 C 84.148438 138.398438 83.480469 142.535156 84.59375 144.984375 C 85.082031 146 85.800781 146.640625 86.96875 146.640625 C 89.394531 146.640625 92.914062 143.601562 94.609375 141.984375 C 96.785156 139.914062 99.59375 136.679688 100.65625 134.609375 L 103.1875 127.46875 C 104.445312 124.332031 107.96875 124.882812 107.96875 127.46875 C 107.96875 132.171875 106.1875 133.742188 103.140625 143.46875 C 100.332031 152.460938 99.453125 155.375 99.453125 155.375 C 99.117188 156.664062 97.804688 158.828125 96.40625 158.828125 C 95.820312 158.828125 95.394531 158.632812 95.15625 158.265625 C 94.667969 157.617188 94.71875 155.839844 94.765625 155.375 C 94.863281 153.902344 97.808594 145.132812 98.296875 143.75 C 97.328125 144.765625 96.316406 145.789062 95.203125 146.796875 C 92.585938 149.148438 88.382812 152.234375 84.796875 152.234375 C 83.148438 152.234375 82.09375 151.8125 81.078125 151.125 L 84.75 187.828125 C 85.71875 190.132812 103.734375 195.71875 127.453125 195.71875 C 151.222656 195.71875 169.21875 190.09375 170.140625 187.828125 L 175.421875 144.21875 C 172.660156 146.617188 169.472656 149.574219 165.9375 151.046875 C 163.320312 152.109375 157.515625 152.789062 157.515625 148.40625 C 157.515625 146.007812 161.925781 141.589844 164.484375 138.5 C 165.164062 137.714844 166.75 135.78125 166.75 134.765625 C 166.75 133.429688 163.855469 133.738281 161.09375 135.90625 C 159.542969 137.152344 158.082031 138.824219 156.875 140.390625 C 154.796875 143.160156 153.6875 145.546875 152.765625 147.53125 C 149.765625 154.074219 150.785156 151.496094 148.359375 157.671875 C 145.933594 163.808594 146.332031 163.109375 145.84375 164.125 C 145.410156 165.003906 144.777344 165.746094 143.90625 166.203125 C 142.984375 166.667969 141.730469 166.613281 140.953125 166.0625 C 140.519531 165.78125 140.3125 165.183594 140.3125 164.359375 C 140.3125 163.945312 140.371094 163.523438 140.46875 163.109375 C 141.195312 160.292969 144.246094 154.769531 147.734375 147.296875 C 148.511719 145.59375 148.214844 146.097656 148.109375 146.234375 C 145.109375 149.003906 142.828125 150.34375 141.140625 151.078125 C 138.332031 152.277344 134.84375 152.277344 134.125 149.1875 C 134.078125 149.003906 134.078125 148.808594 134.03125 148.625 C 128.320312 152.863281 122.269531 154.019531 124.359375 144.890625 C 122.136719 148.675781 118.253906 151.765625 113.5 151.765625 C 111.515625 151.765625 110.0625 151.125 109.34375 149.421875 C 108.230469 146.886719 109.96875 142.542969 111.5625 138.4375 C 112.386719 136.367188 113.511719 133.871094 115.015625 130.96875 C 115.792969 129.402344 117.039062 128.476562 118.6875 128.890625 C 118.976562 128.988281 119.230469 129.082031 119.46875 129.21875 C 120.726562 130.050781 120.242188 131.285156 119.609375 132.53125 C 117.769531 135.988281 116.171875 138.523438 115.109375 142.125 C 114.675781 143.644531 114.132812 146.28125 115.828125 146.28125 C 116.988281 146.28125 118.101562 145.90625 119.171875 145.171875 C 121.394531 143.605469 123.1875 141.257812 124.546875 138.953125 C 125.515625 137.296875 126.683594 135.128906 127.265625 133.28125 C 127.503906 132.496094 127.804688 131.757812 128.140625 131.0625 C 128.675781 129.910156 129.390625 128.71875 130.65625 128.71875 C 131.289062 128.71875 131.8125 128.949219 132.203125 129.40625 C 133.027344 130.421875 132.847656 131.464844 132.40625 132.578125 C 131.4375 135.164062 130.132812 137.472656 129.0625 140.28125 C 128.429688 141.898438 127.75 143.96875 127.75 145.671875 C 127.75 147.238281 129.542969 146.867188 131.046875 146.21875 C 132.207031 145.714844 133.367188 144.941406 134.34375 144.15625 C 134.929688 141.898438 134.773438 142.398438 147.125 112.703125 C 147.757812 111.183594 148.917969 110.53125 150.078125 110.53125 C 150.664062 110.53125 151.136719 110.726562 151.625 111.046875 C 152.449219 111.648438 152.460938 112.921875 152.125 113.890625 C 151.789062 114.769531 151.824219 114.496094 149.9375 118.734375 C 147.417969 124.308594 145.777344 128.332031 143.546875 133.453125 C 142.625 135.574219 139.824219 142.167969 139.34375 143.734375 C 139.054688 144.75 138.707031 146.40625 139.828125 146.40625 C 142.445312 146.40625 149.175781 140.363281 151.015625 138.5625 C 151.113281 138.425781 151.261719 138.378906 151.453125 138.28125 C 151.742188 137.402344 152.027344 136.582031 152.265625 135.75 C 152.945312 134 153.578125 131.957031 154.84375 130.53125 C 155.226562 130.066406 155.660156 129.796875 156.140625 129.796875 C 157.492188 129.796875 158.171875 130.34375 158.171875 131.640625 C 158.171875 132.144531 157.839844 133.996094 157.640625 134.5 C 158.320312 133.8125 159.035156 133.125 159.8125 132.4375 C 167.078125 126.03125 172.25 129.300781 172.25 132.53125 C 172.25 135.9375 167.945312 140.679688 165.578125 143.3125 C 164.800781 144.191406 163.203125 145.800781 163.15625 146.265625 C 163.15625 146.867188 163.585938 147.109375 164.21875 147.109375 C 165.1875 147.109375 167.316406 145.488281 168.09375 144.9375 C 170.519531 143.136719 173.796875 140.375 176.125 138.4375 Z M 87.4375 192.25 L 94.65625 203.96875 L 97.46875 240.578125 C 97.46875 244.683594 111.167969 248 128.015625 248 C 144.863281 248 158.5625 244.683594 158.5625 240.578125 L 160.796875 203.59375 L 167.609375 192.25 C 148.433594 199.953125 107.390625 200.226562 87.4375 192.25 Z M 87.4375 192.25 "/>
</g>
</svg>
