<svg width="1529" height="250" viewBox="0 0 1529 250" fill="none" xmlns="http://www.w3.org/2000/svg">
<path d="M29.548 250H142.756C224.28 250 280.172 200.872 280.172 125.4C280.172 49.928 224.28 0.799983 142.756 0.799983H29.548V250ZM87.22 202.652V48.148H139.908C189.392 48.148 221.788 77.696 221.788 125.4C221.788 173.104 189.392 202.652 139.908 202.652H87.22Z" fill="white"/>
<path d="M336.248 215H377.72V35.8H336.248V215ZM640.152 215L639.64 35.8H605.592L539.544 147.16L472.472 35.8H438.168V215H477.08V109.784L529.56 196.056H548.248L600.984 107.48L601.24 215H640.152ZM700.588 215H742.06V35.8H700.588V215ZM936.396 215H979.916L899.788 35.8H858.828L778.956 215H821.452L837.324 176.6H920.524L936.396 215ZM850.636 145.112L879.052 76.504L907.468 145.112H850.636ZM1139.82 35.8V144.6L1050.73 35.8H1016.43V215H1057.39V106.2L1146.73 215H1180.78V35.8H1139.82ZM1364.49 35.8V144.6L1275.4 35.8H1241.1V215H1282.06V106.2L1371.4 215H1405.45V35.8H1364.49ZM1465.77 215H1507.24V35.8H1465.77V215Z" fill="white"/>
</svg>
