<?xml version="1.0" encoding="UTF-8"?>
<svg xmlns="http://www.w3.org/2000/svg" xmlns:xlink="http://www.w3.org/1999/xlink" viewBox="0 0 240 240" width="240px" height="240px">
<g id="surface2614775">
<path style=" stroke:none;fill-rule:nonzero;fill:rgb(100%,100%,100%);fill-opacity:1;" d="M 132 168 C 142.40625 168 152 177.59375 152 188 C 152 198.40625 142.40625 208 132 208 C 121.59375 208 112 198.40625 112 188 C 112 177.59375 121.59375 168 132 168 Z M 52 168 C 62.40625 168 72 177.59375 72 188 C 72 198.40625 62.40625 208 52 208 C 41.59375 208 32 198.40625 32 188 C 32 177.59375 41.59375 168 52 168 Z M 0 33.910156 C 26.496094 58.910156 57.503906 69.40625 114 69.40625 C 170.496094 69.40625 240 66.414062 240 84.414062 C 240 93.414062 230.496094 101.910156 213.503906 116.910156 C 197 131.910156 165 158.910156 165 158.910156 C 165 151.414062 210.503906 112.414062 210.503906 100.414062 C 210.503906 84.414062 144.289062 86.59375 114.785156 86.089844 C 64.28125 85.089844 23.496094 78.414062 0 33.910156 Z M 0 33.910156 "/>
</g>
</svg>
