<?xml version="1.0" encoding="UTF-8"?>
<svg xmlns="http://www.w3.org/2000/svg" xmlns:xlink="http://www.w3.org/1999/xlink" viewBox="0 0 256 256" width="256px" height="256px">
<g id="surface2611046">
<path style=" stroke:none;fill-rule:nonzero;fill:rgb(100%,100%,100%);fill-opacity:1;" d="M 0 80 L 0 168 L 72 168 L 72 184 L 128 184 L 128 168 L 256 168 L 256 80 Z M 14.21875 94.21875 L 71.125 94.21875 L 71.125 155.5625 L 56.890625 155.5625 L 56.890625 108.453125 L 42.671875 108.453125 L 42.671875 155.5625 L 14.21875 155.5625 Z M 85.34375 94.21875 L 142.234375 94.21875 L 142.234375 155.546875 L 113.78125 155.546875 L 113.78125 169.78125 L 85.34375 169.78125 Z M 156.453125 94.21875 L 241.796875 94.21875 L 241.796875 155.5625 L 227.5625 155.5625 L 227.5625 108.453125 L 213.34375 108.453125 L 213.34375 155.5625 L 199.125 155.5625 L 199.125 108.453125 L 184.890625 108.453125 L 184.890625 155.5625 L 156.453125 155.5625 Z M 113.78125 108.453125 L 113.78125 141.34375 L 128 141.34375 L 128 108.453125 Z M 113.78125 108.453125 "/>
</g>
</svg>
