<?xml version="1.0" encoding="UTF-8"?>
<svg xmlns="http://www.w3.org/2000/svg" xmlns:xlink="http://www.w3.org/1999/xlink" viewBox="0 0 256 256" width="256px" height="256px">
<g id="surface2613568">
<path style=" stroke:none;fill-rule:nonzero;fill:rgb(100%,100%,100%);fill-opacity:1;" d="M 128 24 C 70.625 24 24 70.625 24 128 C 24 185.375 70.625 232 128 232 C 185.375 232 232 185.375 232 128 C 232 70.625 185.375 24 128 24 Z M 128 41.34375 C 150.601562 41.34375 171.054688 49.976562 186.453125 64.046875 C 186.121094 64.039062 185.789062 63.953125 185.375 63.953125 C 176.878906 63.953125 171.34375 71.398438 171.34375 79.375 C 171.34375 86.566406 174.964844 92.558594 179.390625 99.75 C 182.679688 105.46875 186.5 112.921875 186.5 123.578125 C 186.5 131.035156 183.722656 139.609375 179.90625 151.65625 L 171.34375 180.515625 L 138.8125 80.296875 C 144.011719 80.03125 148.6875 79.515625 148.6875 79.515625 C 153.367188 78.996094 152.851562 72.0625 148.171875 72.328125 C 148.171875 72.328125 134.136719 73.453125 125.03125 73.453125 C 116.542969 73.453125 102.234375 72.328125 102.234375 72.328125 C 97.554688 72.0625 97.039062 79.257812 101.71875 79.515625 C 101.71875 79.515625 106.132812 80.03125 110.8125 80.296875 L 125.40625 124.359375 L 106.5 181.21875 L 73.71875 80.3125 C 79.007812 80.046875 83.6875 79.53125 83.6875 79.53125 C 88.367188 79.011719 87.765625 72.078125 83.171875 72.34375 C 83.171875 72.34375 69.71875 73.410156 60.609375 73.453125 C 76.472656 53.855469 100.703125 41.34375 128 41.34375 Z M 204.09375 86.40625 C 210.824219 98.742188 214.65625 112.902344 214.65625 128 C 214.65625 162.316406 194.871094 191.753906 166.078125 205.8125 C 167.945312 204.890625 169.804688 203.96875 171.59375 202.875 L 198.03125 126.359375 C 202.96875 114.054688 204.609375 104.167969 204.609375 95.328125 C 204.609375 92.121094 204.445312 89.253906 204.109375 86.484375 C 204.097656 86.460938 204.105469 86.429688 204.09375 86.40625 Z M 49.625 91.078125 L 90.125 205.921875 C 61.222656 191.90625 41.34375 162.398438 41.34375 128 C 41.34375 114.757812 44.359375 102.28125 49.625 91.078125 Z M 129.46875 135.546875 L 156.171875 208.59375 C 156.34375 209.015625 156.515625 209.367188 156.765625 209.703125 C 147.757812 212.855469 138.109375 214.65625 128 214.65625 C 119.464844 214.65625 111.246094 213.386719 103.46875 211.109375 Z M 91.171875 206.421875 C 93.421875 207.453125 95.699219 208.386719 98 209.265625 C 95.671875 208.410156 93.398438 207.464844 91.171875 206.421875 Z M 163.328125 207.140625 C 161.5 207.953125 159.628906 208.671875 157.734375 209.359375 C 159.632812 208.695312 161.5 207.949219 163.328125 207.140625 Z M 100.484375 210.171875 C 101.410156 210.476562 102.332031 210.785156 103.28125 211.0625 C 102.339844 210.785156 101.414062 210.480469 100.484375 210.171875 Z M 100.484375 210.171875 "/>
</g>
</svg>
