<?xml version="1.0" encoding="UTF-8"?>
<svg xmlns="http://www.w3.org/2000/svg" xmlns:xlink="http://www.w3.org/1999/xlink" viewBox="0 0 250 250" width="250px" height="250px">
<g id="surface2765826">
<path style=" stroke:none;fill-rule:nonzero;fill:rgb(100%,100%,100%);fill-opacity:1;" d="M 110 10 C 110 10 110.097656 19.746094 110 23.007812 C 110 23.085938 110.546875 29.453125 106.386719 40.664062 C 103.613281 47.734375 98.183594 52.421875 94.53125 53.730469 C 51.640625 66.757812 25 100.585938 25 142.011719 C 25 196.035156 69.863281 240 125 240 C 180.136719 240 225 196.035156 225 142.011719 C 225 97.246094 193.144531 60.566406 145.722656 50.644531 L 145.585938 50.625 C 142.988281 49.921875 136.875 49.472656 120 25 C 117.441406 21.289062 110 10 110 10 Z M 117.578125 38.75 C 130.46875 55.839844 137.324219 58.867188 142.949219 60.273438 L 143.75 60.46875 L 144.042969 60.527344 C 186.503906 69.53125 215 102.246094 215 142.011719 C 215 190.527344 174.628906 230 125 230 C 75.371094 230 35 190.527344 35 142.011719 C 35 105.15625 58.925781 74.980469 97.441406 63.28125 L 97.65625 63.222656 L 97.890625 63.144531 C 103.90625 61.015625 111.738281 54.375 115.761719 44.140625 C 116.464844 42.226562 117.070312 40.429688 117.578125 38.75 Z M 102.988281 120 C 82.382812 120 65 133.808594 65 152.988281 C 65 161.757812 67.792969 169.882812 75.722656 175.15625 C 82.851562 179.882812 91.894531 180.585938 98.457031 179.980469 C 114.296875 178.496094 126.25 172.285156 135.351562 166.796875 C 144.433594 161.328125 151.015625 157.402344 153.75 157.5 C 154.21875 157.539062 156.25 158.300781 158.613281 160.039062 C 161.015625 161.796875 163.808594 164.296875 166.582031 166.894531 C 169.375 169.511719 172.167969 172.1875 174.921875 174.394531 C 177.65625 176.601562 180.078125 178.671875 184.121094 178.984375 C 187.851562 179.277344 191.5625 178.476562 194.453125 176.484375 C 197.34375 174.511719 199.414062 171.875 201.953125 168.535156 C 208.164062 160.488281 210 149.707031 210 142.988281 C 210 139.296875 209.355469 134.707031 206.796875 130.429688 C 204.21875 126.152344 199.082031 122.5 192.5 122.5 C 188.496094 122.5 185.117188 124.082031 181.542969 125.976562 C 177.96875 127.871094 174.316406 130.234375 170.722656 132.558594 C 167.148438 134.863281 163.632812 137.089844 160.605469 138.671875 C 157.558594 140.253906 154.960938 140.996094 154.003906 140.996094 L 153.886719 140.996094 L 153.769531 141.015625 C 152.5 141.054688 150.019531 140.3125 146.816406 138.554688 C 143.632812 136.796875 139.804688 134.179688 135.46875 131.464844 C 126.835938 126.015625 116.054688 120 102.988281 120 Z M 102.988281 130 C 112.949219 130 121.914062 134.746094 130.15625 139.921875 C 134.257812 142.519531 138.164062 145.175781 142.011719 147.304688 C 143.925781 148.378906 146.113281 148.476562 148.125 149.160156 C 142.1875 150.917969 136.640625 154.355469 130.175781 158.242188 C 121.542969 163.457031 111.25 168.730469 97.519531 170.019531 C 92.988281 170.449219 85 169.316406 81.269531 166.835938 C 75.839844 163.222656 75 160.234375 75 152.988281 C 75 139.765625 86.621094 130 102.988281 130 Z M 192.5 132.5 C 195.917969 132.5 197.03125 133.59375 198.203125 135.566406 C 199.394531 137.558594 200 140.683594 200 142.988281 C 200 147.285156 197.832031 157.5 194.042969 162.441406 C 191.582031 165.625 189.902344 167.5 188.789062 168.261719 C 187.675781 169.003906 187.167969 169.199219 184.921875 169.003906 L 184.84375 169.003906 C 185.410156 169.0625 183.398438 168.398438 181.171875 166.601562 C 178.964844 164.804688 176.25 162.246094 173.417969 159.589844 C 170.566406 156.933594 167.597656 154.199219 164.53125 151.953125 C 162.832031 150.722656 160.742188 150.332031 158.847656 149.511719 C 160.957031 148.867188 163.144531 148.613281 165.214844 147.558594 C 168.847656 145.664062 172.539062 143.28125 176.152344 140.957031 C 179.746094 138.632812 183.242188 136.386719 186.230469 134.804688 C 189.199219 133.222656 191.738281 132.5 192.5 132.5 Z M 154.121094 150.957031 C 154.140625 150.957031 154.179688 150.996094 154.21875 150.996094 L 154.003906 150.996094 C 154.042969 150.996094 154.082031 150.976562 154.121094 150.957031 Z M 153.027344 175 C 144.882812 175 139.003906 178.105469 135.488281 181.308594 C 131.972656 184.511719 130.46875 188.125 130.46875 188.125 C 129.433594 190.683594 130.664062 193.59375 133.242188 194.648438 C 135.800781 195.683594 138.710938 194.433594 139.746094 191.875 C 139.746094 191.875 140.253906 190.488281 142.226562 188.691406 C 144.199219 186.894531 147.285156 185 153.027344 185 C 158.144531 185 160.859375 186.796875 162.675781 188.574219 C 164.492188 190.351562 165.019531 191.796875 165.019531 191.796875 C 165.625 193.515625 167.109375 194.765625 168.90625 195.058594 C 170.703125 195.371094 172.519531 194.667969 173.652344 193.242188 C 174.785156 191.816406 175.058594 189.902344 174.355469 188.203125 C 174.355469 188.203125 172.96875 184.648438 169.667969 181.425781 C 166.347656 178.203125 160.742188 175 153.027344 175 Z M 164.882812 200.078125 C 163.925781 200.117188 163.007812 200.410156 162.207031 200.957031 C 156.914062 204.511719 149.414062 209.433594 136.484375 208.046875 C 125.9375 206.933594 121.054688 204.023438 118.59375 201.640625 C 116.621094 199.707031 113.457031 199.726562 111.523438 201.71875 C 109.589844 203.691406 109.628906 206.855469 111.621094 208.789062 C 115.996094 213.066406 123.339844 216.71875 135.410156 217.988281 C 151.425781 219.707031 162.246094 212.988281 167.792969 209.257812 C 169.667969 208.027344 170.488281 205.703125 169.824219 203.574219 C 169.140625 201.425781 167.128906 200 164.882812 200.078125 Z M 164.882812 200.078125 "/>
</g>
</svg>
