<svg width="447" height="390" viewBox="0 0 447 390" fill="none" xmlns="http://www.w3.org/2000/svg">
<path d="M205.015 209.081C196.968 220.791 187.976 227.774 178.039 230.03C168.21 232.129 157.757 229.372 146.68 221.76L94.6993 186.038L81.6503 205.027L49.8444 183.17L62.8934 164.181L31.5623 142.651L56.5184 106.335L87.8496 127.866L103.835 104.605L135.64 126.462L119.655 149.723L161.43 178.431C164.912 180.823 168.358 181.91 171.769 181.692C175.131 181.206 177.9 179.382 180.075 176.217C183.228 171.628 184.399 167.89 183.588 165.002L216.014 176.803C217.381 185.663 213.714 196.422 205.015 209.081Z" fill="#FFD547"/>
<path d="M181.569 305.987L196.756 264.317L377.239 330.095L362.052 371.766L181.569 305.987Z" fill="#FF6472"/>
<path d="M374.342 206.602L327.329 202.064L286.225 58.3469L332.666 62.829L355.446 153.565L395.446 68.8882L442.173 73.398L374.342 206.602Z" fill="#FF9D59"/>
</svg>
